<mxfile host="Electron" modified="2023-12-12T11:34:55.743Z" agent="Mozilla/5.0 (Macintosh; Intel Mac OS X 10_15_7) AppleWebKit/537.36 (KHTML, like Gecko) draw.io/22.1.2 Chrome/114.0.5735.289 Electron/25.9.4 Safari/537.36" etag="JJ6EW3CpSNHD3bmdtWhR" version="22.1.2" type="device">
  <diagram name="Page-1" id="myjQk-wkhAcpDl-BsH8o">
    <mxGraphModel dx="1242" dy="800" grid="1" gridSize="10" guides="1" tooltips="1" connect="1" arrows="1" fold="1" page="1" pageScale="1" pageWidth="827" pageHeight="1169" math="0" shadow="0">
      <root>
        <mxCell id="0" />
        <mxCell id="1" parent="0" />
        <mxCell id="Rvj227l52RedUWt44L4D-11" style="edgeStyle=orthogonalEdgeStyle;orthogonalLoop=1;jettySize=auto;html=1;entryX=0;entryY=0.5;entryDx=0;entryDy=0;endArrow=block;endFill=1;strokeWidth=2;strokeColor=#B3B3B3;curved=1;" parent="1" source="Rvj227l52RedUWt44L4D-1" target="Rvj227l52RedUWt44L4D-5" edge="1">
          <mxGeometry relative="1" as="geometry" />
        </mxCell>
        <mxCell id="Rvj227l52RedUWt44L4D-16" style="edgeStyle=orthogonalEdgeStyle;orthogonalLoop=1;jettySize=auto;html=1;entryX=0;entryY=0.5;entryDx=0;entryDy=0;curved=1;arcSize=20;endArrow=none;endFill=0;dashed=1;strokeWidth=2;strokeColor=#B3B3B3;" parent="1" source="Rvj227l52RedUWt44L4D-1" target="Rvj227l52RedUWt44L4D-15" edge="1">
          <mxGeometry relative="1" as="geometry">
            <Array as="points">
              <mxPoint x="260" y="88" />
              <mxPoint x="260" y="284" />
            </Array>
          </mxGeometry>
        </mxCell>
        <mxCell id="Rvj227l52RedUWt44L4D-1" value="Wallet" style="swimlane;fontStyle=0;childLayout=stackLayout;horizontal=1;startSize=26;horizontalStack=0;resizeParent=1;resizeParentMax=0;resizeLast=0;collapsible=1;marginBottom=0;align=center;fontSize=14;fillColor=#e1d5e7;strokeColor=#9673a6;arcSize=10;rounded=1;fontColor=#000000;" parent="1" vertex="1">
          <mxGeometry x="40" y="60" width="160" height="51" as="geometry" />
        </mxCell>
        <mxCell id="Rvj227l52RedUWt44L4D-2" value="System Program" style="text;strokeColor=#666666;fillColor=#f5f5f5;spacingLeft=4;spacingRight=4;overflow=hidden;rotatable=0;points=[[0,0.5],[1,0.5]];portConstraint=eastwest;fontSize=11;whiteSpace=wrap;html=1;align=center;fontFamily=Verdana;fontColor=#333333;" parent="Rvj227l52RedUWt44L4D-1" vertex="1">
          <mxGeometry y="26" width="160" height="25" as="geometry" />
        </mxCell>
        <mxCell id="Rvj227l52RedUWt44L4D-12" style="edgeStyle=orthogonalEdgeStyle;rounded=0;orthogonalLoop=1;jettySize=auto;html=1;entryX=0.5;entryY=0;entryDx=0;entryDy=0;strokeColor=#B3B3B3;endArrow=block;endFill=1;strokeWidth=2;" parent="1" source="Rvj227l52RedUWt44L4D-5" target="Rvj227l52RedUWt44L4D-6" edge="1">
          <mxGeometry relative="1" as="geometry" />
        </mxCell>
        <mxCell id="Rvj227l52RedUWt44L4D-5" value="&lt;font color=&quot;#000000&quot;&gt;PDA&lt;/font&gt;" style="rounded=1;whiteSpace=wrap;html=1;arcSize=50;absoluteArcSize=0;fillColor=#ffe6cc;strokeColor=#d79b00;fontColor=default;" parent="1" vertex="1">
          <mxGeometry x="330" y="70" width="120" height="30" as="geometry" />
        </mxCell>
        <mxCell id="Rvj227l52RedUWt44L4D-6" value="User" style="swimlane;fontStyle=0;childLayout=stackLayout;horizontal=1;startSize=26;horizontalStack=0;resizeParent=1;resizeParentMax=0;resizeLast=0;collapsible=1;marginBottom=0;align=center;fontSize=14;fillColor=#ffe6cc;strokeColor=#d79b00;arcSize=10;rounded=1;fontColor=#000000;" parent="1" vertex="1">
          <mxGeometry x="310" y="220" width="160" height="151" as="geometry" />
        </mxCell>
        <mxCell id="Rvj227l52RedUWt44L4D-7" value="CP" style="text;strokeColor=#666666;fillColor=#f5f5f5;spacingLeft=4;spacingRight=4;overflow=hidden;rotatable=0;points=[[0,0.5],[1,0.5]];portConstraint=eastwest;fontSize=11;whiteSpace=wrap;html=1;align=center;fontFamily=Verdana;fontColor=#333333;" parent="Rvj227l52RedUWt44L4D-6" vertex="1">
          <mxGeometry y="26" width="160" height="25" as="geometry" />
        </mxCell>
        <mxCell id="Rvj227l52RedUWt44L4D-15" value="Owner" style="text;spacingLeft=4;spacingRight=4;overflow=hidden;rotatable=0;points=[[0,0.5],[1,0.5]];portConstraint=eastwest;fontSize=11;whiteSpace=wrap;html=1;align=left;fontFamily=Verdana;" parent="Rvj227l52RedUWt44L4D-6" vertex="1">
          <mxGeometry y="51" width="160" height="25" as="geometry" />
        </mxCell>
        <mxCell id="p-E31Foc24i6YtQsYcdP-1" value="2FAHash" style="text;spacingLeft=4;spacingRight=4;overflow=hidden;rotatable=0;points=[[0,0.5],[1,0.5]];portConstraint=eastwest;fontSize=11;whiteSpace=wrap;html=1;align=left;fontFamily=Verdana;" parent="Rvj227l52RedUWt44L4D-6" vertex="1">
          <mxGeometry y="76" width="160" height="25" as="geometry" />
        </mxCell>
        <mxCell id="Y7vdd_2MA1dPWRgWnuZq-1" value="&lt;b&gt;Region = SG&lt;/b&gt;" style="text;spacingLeft=4;spacingRight=4;overflow=hidden;rotatable=0;points=[[0,0.5],[1,0.5]];portConstraint=eastwest;fontSize=11;whiteSpace=wrap;html=1;align=left;fontFamily=Verdana;" parent="Rvj227l52RedUWt44L4D-6" vertex="1">
          <mxGeometry y="101" width="160" height="25" as="geometry" />
        </mxCell>
        <mxCell id="Y7vdd_2MA1dPWRgWnuZq-2" value="&lt;b&gt;Geohash =&amp;nbsp;gbsuv&lt;/b&gt;" style="text;spacingLeft=4;spacingRight=4;overflow=hidden;rotatable=0;points=[[0,0.5],[1,0.5]];portConstraint=eastwest;fontSize=11;whiteSpace=wrap;html=1;align=left;fontFamily=Verdana;" parent="Rvj227l52RedUWt44L4D-6" vertex="1">
          <mxGeometry y="126" width="160" height="25" as="geometry" />
        </mxCell>
        <mxCell id="Rvj227l52RedUWt44L4D-13" value="&quot;user&quot; + Owner" style="text;html=1;strokeColor=none;fillColor=none;align=center;verticalAlign=middle;whiteSpace=wrap;rounded=0;fontFamily=Verdana;fontColor=#B3B3B3;fontStyle=0;fontSize=11;" parent="1" vertex="1">
          <mxGeometry x="320" y="40" width="138" height="30" as="geometry" />
        </mxCell>
        <mxCell id="Rvj227l52RedUWt44L4D-35" style="edgeStyle=orthogonalEdgeStyle;shape=connector;curved=1;rounded=1;orthogonalLoop=1;jettySize=auto;html=1;entryX=0.5;entryY=1;entryDx=0;entryDy=0;labelBackgroundColor=default;strokeColor=#B3B3B3;strokeWidth=2;fontFamily=Helvetica;fontSize=11;fontColor=default;endArrow=block;endFill=1;" parent="1" source="Rvj227l52RedUWt44L4D-18" target="Rvj227l52RedUWt44L4D-32" edge="1">
          <mxGeometry relative="1" as="geometry" />
        </mxCell>
        <mxCell id="Rvj227l52RedUWt44L4D-67" style="edgeStyle=orthogonalEdgeStyle;shape=connector;curved=1;rounded=1;orthogonalLoop=1;jettySize=auto;html=1;labelBackgroundColor=default;strokeColor=#B3B3B3;strokeWidth=2;fontFamily=Helvetica;fontSize=11;fontColor=default;endArrow=block;endFill=1;entryX=0.5;entryY=0;entryDx=0;entryDy=0;" parent="1" source="Rvj227l52RedUWt44L4D-18" target="Rvj227l52RedUWt44L4D-60" edge="1">
          <mxGeometry relative="1" as="geometry">
            <mxPoint x="410" y="850" as="targetPoint" />
            <Array as="points" />
          </mxGeometry>
        </mxCell>
        <mxCell id="Rvj227l52RedUWt44L4D-18" value="Mint" style="swimlane;fontStyle=0;childLayout=stackLayout;horizontal=1;startSize=26;horizontalStack=0;resizeParent=1;resizeParentMax=0;resizeLast=0;collapsible=1;marginBottom=0;align=center;fontSize=14;fillColor=#dae8fc;strokeColor=#6c8ebf;arcSize=10;rounded=1;fontColor=#000000;" parent="1" vertex="1">
          <mxGeometry x="320" y="610" width="160" height="176" as="geometry" />
        </mxCell>
        <mxCell id="Rvj227l52RedUWt44L4D-19" value="Token Program" style="text;strokeColor=#666666;fillColor=#f5f5f5;spacingLeft=4;spacingRight=4;overflow=hidden;rotatable=0;points=[[0,0.5],[1,0.5]];portConstraint=eastwest;fontSize=11;whiteSpace=wrap;html=1;align=center;fontFamily=Verdana;fontColor=#333333;" parent="Rvj227l52RedUWt44L4D-18" vertex="1">
          <mxGeometry y="26" width="160" height="25" as="geometry" />
        </mxCell>
        <mxCell id="Rvj227l52RedUWt44L4D-20" value="Mint Authority" style="text;spacingLeft=4;spacingRight=4;overflow=hidden;rotatable=0;points=[[0,0.5],[1,0.5]];portConstraint=eastwest;fontSize=11;whiteSpace=wrap;html=1;align=left;fontFamily=Verdana;fontStyle=2" parent="Rvj227l52RedUWt44L4D-18" vertex="1">
          <mxGeometry y="51" width="160" height="25" as="geometry" />
        </mxCell>
        <mxCell id="Rvj227l52RedUWt44L4D-21" value="&lt;b style=&quot;font-size: 11px;&quot;&gt;Supply = 1&lt;/b&gt;" style="text;spacingLeft=4;spacingRight=4;overflow=hidden;rotatable=0;points=[[0,0.5],[1,0.5]];portConstraint=eastwest;fontSize=11;whiteSpace=wrap;html=1;align=left;fontFamily=Verdana;" parent="Rvj227l52RedUWt44L4D-18" vertex="1">
          <mxGeometry y="76" width="160" height="25" as="geometry" />
        </mxCell>
        <mxCell id="Rvj227l52RedUWt44L4D-22" value="&lt;b style=&quot;font-size: 11px;&quot;&gt;Decimals = 0&lt;/b&gt;" style="text;spacingLeft=4;spacingRight=4;overflow=hidden;rotatable=0;points=[[0,0.5],[1,0.5]];portConstraint=eastwest;fontSize=11;whiteSpace=wrap;html=1;align=left;fontFamily=Verdana;" parent="Rvj227l52RedUWt44L4D-18" vertex="1">
          <mxGeometry y="101" width="160" height="25" as="geometry" />
        </mxCell>
        <mxCell id="Rvj227l52RedUWt44L4D-23" value="Is Initialized" style="text;spacingLeft=4;spacingRight=4;overflow=hidden;rotatable=0;points=[[0,0.5],[1,0.5]];portConstraint=eastwest;fontSize=11;whiteSpace=wrap;html=1;align=left;fontFamily=Verdana;" parent="Rvj227l52RedUWt44L4D-18" vertex="1">
          <mxGeometry y="126" width="160" height="25" as="geometry" />
        </mxCell>
        <mxCell id="Rvj227l52RedUWt44L4D-24" value="Freeze Authority" style="text;spacingLeft=4;spacingRight=4;overflow=hidden;rotatable=0;points=[[0,0.5],[1,0.5]];portConstraint=eastwest;fontSize=11;whiteSpace=wrap;html=1;align=left;fontFamily=Verdana;fontStyle=2" parent="Rvj227l52RedUWt44L4D-18" vertex="1">
          <mxGeometry y="151" width="160" height="25" as="geometry" />
        </mxCell>
        <mxCell id="Rvj227l52RedUWt44L4D-30" style="edgeStyle=orthogonalEdgeStyle;orthogonalLoop=1;jettySize=auto;html=1;endArrow=none;strokeColor=#B3B3B3;arcSize=20;endFill=0;dashed=1;strokeWidth=2;curved=1;" parent="1" source="Rvj227l52RedUWt44L4D-25" target="Rvj227l52RedUWt44L4D-20" edge="1">
          <mxGeometry relative="1" as="geometry">
            <mxPoint x="300" y="670" as="targetPoint" />
            <Array as="points">
              <mxPoint x="240" y="720" />
              <mxPoint x="240" y="676" />
            </Array>
          </mxGeometry>
        </mxCell>
        <mxCell id="Rvj227l52RedUWt44L4D-31" style="edgeStyle=orthogonalEdgeStyle;orthogonalLoop=1;jettySize=auto;html=1;endArrow=none;strokeColor=#B3B3B3;arcSize=20;endFill=0;dashed=1;strokeWidth=2;curved=1;" parent="1" source="Rvj227l52RedUWt44L4D-25" target="Rvj227l52RedUWt44L4D-24" edge="1">
          <mxGeometry relative="1" as="geometry">
            <mxPoint x="270" y="810" as="targetPoint" />
            <Array as="points">
              <mxPoint x="240" y="720" />
              <mxPoint x="240" y="774" />
            </Array>
          </mxGeometry>
        </mxCell>
        <mxCell id="Rvj227l52RedUWt44L4D-34" style="edgeStyle=orthogonalEdgeStyle;shape=connector;curved=1;rounded=1;orthogonalLoop=1;jettySize=auto;html=1;entryX=0;entryY=0.5;entryDx=0;entryDy=0;labelBackgroundColor=default;strokeColor=#B3B3B3;strokeWidth=2;fontFamily=Helvetica;fontSize=11;fontColor=default;endArrow=block;endFill=1;arcSize=20;" parent="1" source="Rvj227l52RedUWt44L4D-25" target="Rvj227l52RedUWt44L4D-32" edge="1">
          <mxGeometry relative="1" as="geometry">
            <Array as="points">
              <mxPoint x="120" y="495" />
            </Array>
          </mxGeometry>
        </mxCell>
        <mxCell id="Rvj227l52RedUWt44L4D-25" value="Wallet (Seller)" style="swimlane;fontStyle=0;childLayout=stackLayout;horizontal=1;startSize=26;horizontalStack=0;resizeParent=1;resizeParentMax=0;resizeLast=0;collapsible=1;marginBottom=0;align=center;fontSize=14;fillColor=#e1d5e7;strokeColor=#9673a6;arcSize=10;rounded=1;fontColor=#000000;" parent="1" vertex="1">
          <mxGeometry x="40" y="696" width="160" height="51" as="geometry" />
        </mxCell>
        <mxCell id="Rvj227l52RedUWt44L4D-26" value="System Program" style="text;strokeColor=#666666;fillColor=#f5f5f5;spacingLeft=4;spacingRight=4;overflow=hidden;rotatable=0;points=[[0,0.5],[1,0.5]];portConstraint=eastwest;fontSize=11;whiteSpace=wrap;html=1;align=center;fontFamily=Verdana;fontColor=#333333;" parent="Rvj227l52RedUWt44L4D-25" vertex="1">
          <mxGeometry y="26" width="160" height="25" as="geometry" />
        </mxCell>
        <mxCell id="Rvj227l52RedUWt44L4D-43" style="edgeStyle=orthogonalEdgeStyle;shape=connector;curved=1;rounded=1;orthogonalLoop=1;jettySize=auto;html=1;entryX=0.5;entryY=0;entryDx=0;entryDy=0;labelBackgroundColor=default;strokeColor=#B3B3B3;strokeWidth=2;fontFamily=Helvetica;fontSize=11;fontColor=default;endArrow=block;endFill=1;" parent="1" source="Rvj227l52RedUWt44L4D-32" target="Rvj227l52RedUWt44L4D-36" edge="1">
          <mxGeometry relative="1" as="geometry" />
        </mxCell>
        <mxCell id="Rvj227l52RedUWt44L4D-32" value="&lt;font color=&quot;#000000&quot;&gt;PDA&lt;/font&gt;" style="rounded=1;whiteSpace=wrap;html=1;arcSize=50;absoluteArcSize=0;fillColor=#ffe6cc;strokeColor=#d79b00;" parent="1" vertex="1">
          <mxGeometry x="340" y="480" width="120" height="30" as="geometry" />
        </mxCell>
        <mxCell id="Rvj227l52RedUWt44L4D-33" value="Owner + Mint" style="text;html=1;strokeColor=none;fillColor=none;align=center;verticalAlign=middle;whiteSpace=wrap;rounded=0;fontFamily=Verdana;fontColor=#B3B3B3;fontStyle=0;fontSize=11;" parent="1" vertex="1">
          <mxGeometry x="352" y="450" width="96" height="30" as="geometry" />
        </mxCell>
        <mxCell id="Rvj227l52RedUWt44L4D-36" value="ATA" style="swimlane;fontStyle=0;childLayout=stackLayout;horizontal=1;startSize=26;horizontalStack=0;resizeParent=1;resizeParentMax=0;resizeLast=0;collapsible=1;marginBottom=0;align=center;fontSize=14;fillColor=#ffe6cc;strokeColor=#d79b00;arcSize=10;rounded=1;fontColor=#000000;" parent="1" vertex="1">
          <mxGeometry x="590" y="590" width="160" height="126" as="geometry" />
        </mxCell>
        <mxCell id="Rvj227l52RedUWt44L4D-37" value="&lt;font style=&quot;font-size: 11px;&quot;&gt;Associated Token Program&lt;/font&gt;" style="text;strokeColor=#666666;fillColor=#f5f5f5;spacingLeft=4;spacingRight=4;overflow=hidden;rotatable=0;points=[[0,0.5],[1,0.5]];portConstraint=eastwest;fontSize=12;whiteSpace=wrap;html=1;align=center;fontFamily=Verdana;fontColor=#333333;" parent="Rvj227l52RedUWt44L4D-36" vertex="1">
          <mxGeometry y="26" width="160" height="25" as="geometry" />
        </mxCell>
        <mxCell id="Rvj227l52RedUWt44L4D-38" value="&lt;span style=&quot;font-style: normal;&quot;&gt;Mint&lt;/span&gt;" style="text;spacingLeft=4;spacingRight=4;overflow=hidden;rotatable=0;points=[[0,0.5],[1,0.5]];portConstraint=eastwest;fontSize=11;whiteSpace=wrap;html=1;align=left;fontFamily=Verdana;fontStyle=2" parent="Rvj227l52RedUWt44L4D-36" vertex="1">
          <mxGeometry y="51" width="160" height="25" as="geometry" />
        </mxCell>
        <mxCell id="Rvj227l52RedUWt44L4D-39" value="&lt;span style=&quot;font-size: 11px;&quot;&gt;Owner&lt;/span&gt;" style="text;spacingLeft=4;spacingRight=4;overflow=hidden;rotatable=0;points=[[0,0.5],[1,0.5]];portConstraint=eastwest;fontSize=11;whiteSpace=wrap;html=1;align=left;fontFamily=Verdana;" parent="Rvj227l52RedUWt44L4D-36" vertex="1">
          <mxGeometry y="76" width="160" height="25" as="geometry" />
        </mxCell>
        <mxCell id="Rvj227l52RedUWt44L4D-40" value="&lt;span style=&quot;font-size: 11px;&quot;&gt;Amount&lt;/span&gt;" style="text;spacingLeft=4;spacingRight=4;overflow=hidden;rotatable=0;points=[[0,0.5],[1,0.5]];portConstraint=eastwest;fontSize=11;whiteSpace=wrap;html=1;align=left;fontFamily=Verdana;" parent="Rvj227l52RedUWt44L4D-36" vertex="1">
          <mxGeometry y="101" width="160" height="25" as="geometry" />
        </mxCell>
        <mxCell id="Rvj227l52RedUWt44L4D-48" style="edgeStyle=orthogonalEdgeStyle;shape=connector;curved=1;rounded=1;orthogonalLoop=1;jettySize=auto;html=1;dashed=1;labelBackgroundColor=default;strokeColor=#B3B3B3;strokeWidth=2;fontFamily=Helvetica;fontSize=11;fontColor=default;endArrow=none;endFill=0;" parent="1" source="Rvj227l52RedUWt44L4D-38" target="Rvj227l52RedUWt44L4D-18" edge="1">
          <mxGeometry relative="1" as="geometry" />
        </mxCell>
        <mxCell id="Rvj227l52RedUWt44L4D-50" value="RegionMarket" style="swimlane;fontStyle=0;childLayout=stackLayout;horizontal=1;startSize=26;horizontalStack=0;resizeParent=1;resizeParentMax=0;resizeLast=0;collapsible=1;marginBottom=0;align=center;fontSize=14;fillColor=#ffe6cc;strokeColor=#d79b00;arcSize=10;rounded=1;fontColor=#000000;" parent="1" vertex="1">
          <mxGeometry x="880" y="590" width="160" height="76" as="geometry" />
        </mxCell>
        <mxCell id="Rvj227l52RedUWt44L4D-51" value="CP" style="text;strokeColor=#666666;fillColor=#f5f5f5;spacingLeft=4;spacingRight=4;overflow=hidden;rotatable=0;points=[[0,0.5],[1,0.5]];portConstraint=eastwest;fontSize=11;whiteSpace=wrap;html=1;align=center;fontFamily=Verdana;fontColor=#333333;" parent="Rvj227l52RedUWt44L4D-50" vertex="1">
          <mxGeometry y="26" width="160" height="25" as="geometry" />
        </mxCell>
        <mxCell id="Rvj227l52RedUWt44L4D-52" value="&lt;b&gt;Region = SGP&lt;/b&gt;" style="text;spacingLeft=4;spacingRight=4;overflow=hidden;rotatable=0;points=[[0,0.5],[1,0.5]];portConstraint=eastwest;fontSize=11;whiteSpace=wrap;html=1;align=left;fontFamily=Verdana;" parent="Rvj227l52RedUWt44L4D-50" vertex="1">
          <mxGeometry y="51" width="160" height="25" as="geometry" />
        </mxCell>
        <mxCell id="Rvj227l52RedUWt44L4D-55" style="edgeStyle=orthogonalEdgeStyle;shape=connector;curved=1;rounded=1;orthogonalLoop=1;jettySize=auto;html=1;dashed=1;labelBackgroundColor=default;strokeColor=#B3B3B3;strokeWidth=2;fontFamily=Helvetica;fontSize=11;fontColor=default;endArrow=none;endFill=0;" parent="1" source="Rvj227l52RedUWt44L4D-39" target="Rvj227l52RedUWt44L4D-50" edge="1">
          <mxGeometry relative="1" as="geometry" />
        </mxCell>
        <mxCell id="Rvj227l52RedUWt44L4D-56" value="CP owns on behalf of wallet (burns, etc...)" style="text;html=1;strokeColor=none;fillColor=none;align=center;verticalAlign=middle;whiteSpace=wrap;rounded=0;fontSize=11;fontFamily=Helvetica;fontColor=default;" parent="1" vertex="1">
          <mxGeometry x="760" y="680" width="130" height="51" as="geometry" />
        </mxCell>
        <mxCell id="Rvj227l52RedUWt44L4D-59" style="edgeStyle=orthogonalEdgeStyle;shape=connector;curved=1;rounded=1;orthogonalLoop=1;jettySize=auto;html=1;entryX=0.5;entryY=0;entryDx=0;entryDy=0;labelBackgroundColor=default;strokeColor=#B3B3B3;strokeWidth=2;fontFamily=Helvetica;fontSize=11;fontColor=default;endArrow=block;endFill=1;" parent="1" source="Rvj227l52RedUWt44L4D-57" target="Rvj227l52RedUWt44L4D-50" edge="1">
          <mxGeometry relative="1" as="geometry" />
        </mxCell>
        <mxCell id="Rvj227l52RedUWt44L4D-57" value="&lt;font color=&quot;#000000&quot;&gt;PDA&lt;/font&gt;" style="rounded=1;whiteSpace=wrap;html=1;arcSize=50;absoluteArcSize=0;fillColor=#ffe6cc;strokeColor=#d79b00;" parent="1" vertex="1">
          <mxGeometry x="900" y="465" width="120" height="30" as="geometry" />
        </mxCell>
        <mxCell id="Rvj227l52RedUWt44L4D-58" value="&quot;market&quot; + &quot;SG&quot;" style="text;html=1;strokeColor=none;fillColor=none;align=center;verticalAlign=middle;whiteSpace=wrap;rounded=0;fontFamily=Verdana;fontColor=#B3B3B3;fontStyle=0;fontSize=11;" parent="1" vertex="1">
          <mxGeometry x="912" y="435" width="96" height="30" as="geometry" />
        </mxCell>
        <mxCell id="Rvj227l52RedUWt44L4D-68" style="edgeStyle=orthogonalEdgeStyle;shape=connector;curved=1;rounded=1;orthogonalLoop=1;jettySize=auto;html=1;entryX=0.5;entryY=0;entryDx=0;entryDy=0;labelBackgroundColor=default;strokeColor=#B3B3B3;strokeWidth=2;fontFamily=Helvetica;fontSize=11;fontColor=default;endArrow=block;endFill=1;" parent="1" source="Rvj227l52RedUWt44L4D-60" target="Rvj227l52RedUWt44L4D-61" edge="1">
          <mxGeometry relative="1" as="geometry" />
        </mxCell>
        <mxCell id="Rvj227l52RedUWt44L4D-60" value="&lt;font color=&quot;#000000&quot;&gt;PDA&lt;/font&gt;" style="rounded=1;whiteSpace=wrap;html=1;arcSize=50;absoluteArcSize=0;fillColor=#ffe6cc;strokeColor=#d79b00;" parent="1" vertex="1">
          <mxGeometry x="340" y="860" width="120" height="30" as="geometry" />
        </mxCell>
        <mxCell id="Rvj227l52RedUWt44L4D-61" value="Coupon" style="swimlane;fontStyle=0;childLayout=stackLayout;horizontal=1;startSize=26;horizontalStack=0;resizeParent=1;resizeParentMax=0;resizeLast=0;collapsible=1;marginBottom=0;align=center;fontSize=14;fillColor=#ffe6cc;strokeColor=#d79b00;arcSize=10;rounded=1;fontColor=#000000;" parent="1" vertex="1">
          <mxGeometry x="320" y="960" width="160" height="226" as="geometry" />
        </mxCell>
        <mxCell id="Rvj227l52RedUWt44L4D-62" value="&lt;font style=&quot;font-size: 11px;&quot;&gt;CP&lt;/font&gt;" style="text;strokeColor=#666666;fillColor=#f5f5f5;spacingLeft=4;spacingRight=4;overflow=hidden;rotatable=0;points=[[0,0.5],[1,0.5]];portConstraint=eastwest;fontSize=12;whiteSpace=wrap;html=1;align=center;fontFamily=Verdana;fontColor=#333333;" parent="Rvj227l52RedUWt44L4D-61" vertex="1">
          <mxGeometry y="26" width="160" height="25" as="geometry" />
        </mxCell>
        <mxCell id="Rvj227l52RedUWt44L4D-63" value="&lt;span style=&quot;font-style: normal;&quot;&gt;Mint&lt;/span&gt;" style="text;spacingLeft=4;spacingRight=4;overflow=hidden;rotatable=0;points=[[0,0.5],[1,0.5]];portConstraint=eastwest;fontSize=11;whiteSpace=wrap;html=1;align=left;fontFamily=Verdana;fontStyle=2" parent="Rvj227l52RedUWt44L4D-61" vertex="1">
          <mxGeometry y="51" width="160" height="25" as="geometry" />
        </mxCell>
        <mxCell id="Rvj227l52RedUWt44L4D-64" value="&lt;span style=&quot;font-size: 11px;&quot;&gt;Name&lt;/span&gt;" style="text;spacingLeft=4;spacingRight=4;overflow=hidden;rotatable=0;points=[[0,0.5],[1,0.5]];portConstraint=eastwest;fontSize=11;whiteSpace=wrap;html=1;align=left;fontFamily=Verdana;" parent="Rvj227l52RedUWt44L4D-61" vertex="1">
          <mxGeometry y="76" width="160" height="25" as="geometry" />
        </mxCell>
        <mxCell id="Rvj227l52RedUWt44L4D-65" value="&lt;span style=&quot;font-size: 11px;&quot;&gt;Symbol&lt;/span&gt;" style="text;spacingLeft=4;spacingRight=4;overflow=hidden;rotatable=0;points=[[0,0.5],[1,0.5]];portConstraint=eastwest;fontSize=11;whiteSpace=wrap;html=1;align=left;fontFamily=Verdana;" parent="Rvj227l52RedUWt44L4D-61" vertex="1">
          <mxGeometry y="101" width="160" height="25" as="geometry" />
        </mxCell>
        <mxCell id="Rvj227l52RedUWt44L4D-69" value="&lt;span style=&quot;font-size: 11px;&quot;&gt;URI&lt;/span&gt;" style="text;spacingLeft=4;spacingRight=4;overflow=hidden;rotatable=0;points=[[0,0.5],[1,0.5]];portConstraint=eastwest;fontSize=11;whiteSpace=wrap;html=1;align=left;fontFamily=Verdana;" parent="Rvj227l52RedUWt44L4D-61" vertex="1">
          <mxGeometry y="126" width="160" height="25" as="geometry" />
        </mxCell>
        <mxCell id="Y7vdd_2MA1dPWRgWnuZq-5" value="&lt;b&gt;Geohash = gbsuv&lt;/b&gt;" style="text;spacingLeft=4;spacingRight=4;overflow=hidden;rotatable=0;points=[[0,0.5],[1,0.5]];portConstraint=eastwest;fontSize=11;whiteSpace=wrap;html=1;align=left;fontFamily=Verdana;" parent="Rvj227l52RedUWt44L4D-61" vertex="1">
          <mxGeometry y="151" width="160" height="25" as="geometry" />
        </mxCell>
        <mxCell id="p-E31Foc24i6YtQsYcdP-3" value="&lt;span style=&quot;font-size: 11px;&quot;&gt;&lt;b&gt;Region = SGP&lt;/b&gt;&lt;/span&gt;" style="text;spacingLeft=4;spacingRight=4;overflow=hidden;rotatable=0;points=[[0,0.5],[1,0.5]];portConstraint=eastwest;fontSize=11;whiteSpace=wrap;html=1;align=left;fontFamily=Verdana;" parent="Rvj227l52RedUWt44L4D-61" vertex="1">
          <mxGeometry y="176" width="160" height="25" as="geometry" />
        </mxCell>
        <mxCell id="0rPTB_BggC_cvZNk9b0N-2" value="&lt;span style=&quot;font-size: 11px;&quot;&gt;Update Authority&lt;/span&gt;" style="text;spacingLeft=4;spacingRight=4;overflow=hidden;rotatable=0;points=[[0,0.5],[1,0.5]];portConstraint=eastwest;fontSize=11;whiteSpace=wrap;html=1;align=left;fontFamily=Verdana;" parent="Rvj227l52RedUWt44L4D-61" vertex="1">
          <mxGeometry y="201" width="160" height="25" as="geometry" />
        </mxCell>
        <mxCell id="Rvj227l52RedUWt44L4D-66" value="&quot;metadata&quot;&lt;br&gt;+ Mint" style="text;html=1;strokeColor=none;fillColor=none;align=left;verticalAlign=middle;whiteSpace=wrap;rounded=0;fontFamily=Verdana;fontColor=#B3B3B3;fontStyle=0;fontSize=11;" parent="1" vertex="1">
          <mxGeometry x="470" y="850" width="80" height="40" as="geometry" />
        </mxCell>
        <mxCell id="Rvj227l52RedUWt44L4D-72" value="Mint" style="swimlane;fontStyle=0;childLayout=stackLayout;horizontal=1;startSize=26;horizontalStack=0;resizeParent=1;resizeParentMax=0;resizeLast=0;collapsible=1;marginBottom=0;align=center;fontSize=14;fillColor=#dae8fc;strokeColor=#6c8ebf;arcSize=10;rounded=1;fontColor=#000000;" parent="1" vertex="1">
          <mxGeometry x="60" y="980" width="160" height="76" as="geometry" />
        </mxCell>
        <mxCell id="Rvj227l52RedUWt44L4D-73" value="Token Program" style="text;strokeColor=#666666;fillColor=#f5f5f5;spacingLeft=4;spacingRight=4;overflow=hidden;rotatable=0;points=[[0,0.5],[1,0.5]];portConstraint=eastwest;fontSize=11;whiteSpace=wrap;html=1;align=center;fontFamily=Verdana;fontColor=#333333;" parent="Rvj227l52RedUWt44L4D-72" vertex="1">
          <mxGeometry y="26" width="160" height="25" as="geometry" />
        </mxCell>
        <mxCell id="Rvj227l52RedUWt44L4D-78" value="..." style="text;spacingLeft=4;spacingRight=4;overflow=hidden;rotatable=0;points=[[0,0.5],[1,0.5]];portConstraint=eastwest;fontSize=11;whiteSpace=wrap;html=1;align=left;fontFamily=Verdana;fontStyle=2" parent="Rvj227l52RedUWt44L4D-72" vertex="1">
          <mxGeometry y="51" width="160" height="25" as="geometry" />
        </mxCell>
        <mxCell id="Rvj227l52RedUWt44L4D-79" style="edgeStyle=orthogonalEdgeStyle;shape=connector;curved=1;rounded=1;orthogonalLoop=1;jettySize=auto;html=1;entryX=1;entryY=0.25;entryDx=0;entryDy=0;dashed=1;labelBackgroundColor=default;strokeColor=#B3B3B3;strokeWidth=2;fontFamily=Helvetica;fontSize=11;fontColor=default;endArrow=none;endFill=0;" parent="1" source="Rvj227l52RedUWt44L4D-63" target="Rvj227l52RedUWt44L4D-72" edge="1">
          <mxGeometry relative="1" as="geometry" />
        </mxCell>
        <mxCell id="Y7vdd_2MA1dPWRgWnuZq-3" value="Geohash is so that user only receives coupons in his location" style="text;html=1;strokeColor=none;fillColor=none;align=center;verticalAlign=middle;whiteSpace=wrap;rounded=0;fontSize=11;fontFamily=Helvetica;fontColor=default;" parent="1" vertex="1">
          <mxGeometry x="160" y="380" width="130" height="51" as="geometry" />
        </mxCell>
        <mxCell id="Y7vdd_2MA1dPWRgWnuZq-8" value="JSON Metadata" style="swimlane;fontStyle=0;childLayout=stackLayout;horizontal=1;startSize=26;horizontalStack=0;resizeParent=1;resizeParentMax=0;resizeLast=0;collapsible=1;marginBottom=0;align=center;fontSize=14;arcSize=10;rounded=1;" parent="1" vertex="1">
          <mxGeometry x="60" y="1180" width="160" height="176" as="geometry" />
        </mxCell>
        <mxCell id="Y7vdd_2MA1dPWRgWnuZq-16" value="S3" style="text;strokeColor=#666666;fillColor=#f5f5f5;spacingLeft=4;spacingRight=4;overflow=hidden;rotatable=0;points=[[0,0.5],[1,0.5]];portConstraint=eastwest;fontSize=11;whiteSpace=wrap;html=1;align=center;fontFamily=Verdana;fontColor=#333333;" parent="Y7vdd_2MA1dPWRgWnuZq-8" vertex="1">
          <mxGeometry y="26" width="160" height="25" as="geometry" />
        </mxCell>
        <mxCell id="Y7vdd_2MA1dPWRgWnuZq-10" value="&lt;span style=&quot;font-style: normal;&quot;&gt;Name&lt;/span&gt;" style="text;spacingLeft=4;spacingRight=4;overflow=hidden;rotatable=0;points=[[0,0.5],[1,0.5]];portConstraint=eastwest;fontSize=11;whiteSpace=wrap;html=1;align=left;fontFamily=Verdana;fontStyle=2" parent="Y7vdd_2MA1dPWRgWnuZq-8" vertex="1">
          <mxGeometry y="51" width="160" height="25" as="geometry" />
        </mxCell>
        <mxCell id="Y7vdd_2MA1dPWRgWnuZq-11" value="&lt;span style=&quot;font-size: 11px;&quot;&gt;Description&lt;/span&gt;" style="text;spacingLeft=4;spacingRight=4;overflow=hidden;rotatable=0;points=[[0,0.5],[1,0.5]];portConstraint=eastwest;fontSize=11;whiteSpace=wrap;html=1;align=left;fontFamily=Verdana;" parent="Y7vdd_2MA1dPWRgWnuZq-8" vertex="1">
          <mxGeometry y="76" width="160" height="25" as="geometry" />
        </mxCell>
        <mxCell id="Y7vdd_2MA1dPWRgWnuZq-12" value="&lt;span style=&quot;font-size: 11px;&quot;&gt;Image&lt;/span&gt;" style="text;spacingLeft=4;spacingRight=4;overflow=hidden;rotatable=0;points=[[0,0.5],[1,0.5]];portConstraint=eastwest;fontSize=11;whiteSpace=wrap;html=1;align=left;fontFamily=Verdana;" parent="Y7vdd_2MA1dPWRgWnuZq-8" vertex="1">
          <mxGeometry y="101" width="160" height="25" as="geometry" />
        </mxCell>
        <mxCell id="Y7vdd_2MA1dPWRgWnuZq-14" value="Attributes" style="text;spacingLeft=4;spacingRight=4;overflow=hidden;rotatable=0;points=[[0,0.5],[1,0.5]];portConstraint=eastwest;fontSize=11;whiteSpace=wrap;html=1;align=left;fontFamily=Verdana;" parent="Y7vdd_2MA1dPWRgWnuZq-8" vertex="1">
          <mxGeometry y="126" width="160" height="25" as="geometry" />
        </mxCell>
        <mxCell id="Y7vdd_2MA1dPWRgWnuZq-15" value="..." style="text;spacingLeft=4;spacingRight=4;overflow=hidden;rotatable=0;points=[[0,0.5],[1,0.5]];portConstraint=eastwest;fontSize=11;whiteSpace=wrap;html=1;align=left;fontFamily=Verdana;" parent="Y7vdd_2MA1dPWRgWnuZq-8" vertex="1">
          <mxGeometry y="151" width="160" height="25" as="geometry" />
        </mxCell>
        <mxCell id="Y7vdd_2MA1dPWRgWnuZq-17" style="edgeStyle=orthogonalEdgeStyle;orthogonalLoop=1;jettySize=auto;html=1;entryX=0.5;entryY=0;entryDx=0;entryDy=0;endArrow=none;strokeColor=#B3B3B3;dashed=1;strokeWidth=2;endFill=0;curved=1;" parent="1" source="Rvj227l52RedUWt44L4D-69" target="Y7vdd_2MA1dPWRgWnuZq-8" edge="1">
          <mxGeometry relative="1" as="geometry" />
        </mxCell>
        <mxCell id="p-E31Foc24i6YtQsYcdP-2" value="2FAHash is the MD5 hash of Owner + email. Do not store email for security/privacy" style="text;html=1;strokeColor=none;fillColor=none;align=center;verticalAlign=middle;whiteSpace=wrap;rounded=0;fontSize=11;fontFamily=Helvetica;fontColor=default;" parent="1" vertex="1">
          <mxGeometry x="160" y="291" width="130" height="80" as="geometry" />
        </mxCell>
        <mxCell id="bRZ2Zx1AM5xXXF9KKaA6-1" value="ATA" style="swimlane;fontStyle=0;childLayout=stackLayout;horizontal=1;startSize=26;horizontalStack=0;resizeParent=1;resizeParentMax=0;resizeLast=0;collapsible=1;marginBottom=0;align=center;fontSize=14;fillColor=#ffe6cc;strokeColor=#d79b00;arcSize=10;rounded=1;fontColor=#000000;" parent="1" vertex="1">
          <mxGeometry x="590" y="240" width="160" height="126" as="geometry" />
        </mxCell>
        <mxCell id="bRZ2Zx1AM5xXXF9KKaA6-2" value="&lt;font style=&quot;font-size: 11px;&quot;&gt;Associated Token Program&lt;/font&gt;" style="text;strokeColor=#666666;fillColor=#f5f5f5;spacingLeft=4;spacingRight=4;overflow=hidden;rotatable=0;points=[[0,0.5],[1,0.5]];portConstraint=eastwest;fontSize=12;whiteSpace=wrap;html=1;align=center;fontFamily=Verdana;fontColor=#333333;" parent="bRZ2Zx1AM5xXXF9KKaA6-1" vertex="1">
          <mxGeometry y="26" width="160" height="25" as="geometry" />
        </mxCell>
        <mxCell id="bRZ2Zx1AM5xXXF9KKaA6-3" value="&lt;span style=&quot;font-style: normal;&quot;&gt;Mint&lt;/span&gt;" style="text;spacingLeft=4;spacingRight=4;overflow=hidden;rotatable=0;points=[[0,0.5],[1,0.5]];portConstraint=eastwest;fontSize=11;whiteSpace=wrap;html=1;align=left;fontFamily=Verdana;fontStyle=2" parent="bRZ2Zx1AM5xXXF9KKaA6-1" vertex="1">
          <mxGeometry y="51" width="160" height="25" as="geometry" />
        </mxCell>
        <mxCell id="bRZ2Zx1AM5xXXF9KKaA6-4" value="&lt;span style=&quot;font-size: 11px;&quot;&gt;Owner&lt;/span&gt;" style="text;spacingLeft=4;spacingRight=4;overflow=hidden;rotatable=0;points=[[0,0.5],[1,0.5]];portConstraint=eastwest;fontSize=11;whiteSpace=wrap;html=1;align=left;fontFamily=Verdana;" parent="bRZ2Zx1AM5xXXF9KKaA6-1" vertex="1">
          <mxGeometry y="76" width="160" height="25" as="geometry" />
        </mxCell>
        <mxCell id="bRZ2Zx1AM5xXXF9KKaA6-5" value="&lt;span style=&quot;font-size: 11px;&quot;&gt;Amount&lt;/span&gt;" style="text;spacingLeft=4;spacingRight=4;overflow=hidden;rotatable=0;points=[[0,0.5],[1,0.5]];portConstraint=eastwest;fontSize=11;whiteSpace=wrap;html=1;align=left;fontFamily=Verdana;" parent="bRZ2Zx1AM5xXXF9KKaA6-1" vertex="1">
          <mxGeometry y="101" width="160" height="25" as="geometry" />
        </mxCell>
        <mxCell id="bRZ2Zx1AM5xXXF9KKaA6-6" style="edgeStyle=orthogonalEdgeStyle;shape=connector;curved=1;rounded=1;orthogonalLoop=1;jettySize=auto;html=1;dashed=1;labelBackgroundColor=default;strokeColor=#B3B3B3;strokeWidth=2;fontFamily=Helvetica;fontSize=11;fontColor=default;endArrow=none;endFill=0;exitX=0;exitY=0.5;exitDx=0;exitDy=0;" parent="1" source="bRZ2Zx1AM5xXXF9KKaA6-4" target="Rvj227l52RedUWt44L4D-6" edge="1">
          <mxGeometry relative="1" as="geometry">
            <mxPoint x="660" y="190" as="sourcePoint" />
            <mxPoint x="600" y="170" as="targetPoint" />
          </mxGeometry>
        </mxCell>
        <mxCell id="Dj5Adu8nx1-zXwzrSsqa-18" value="&lt;h1&gt;Legend&lt;/h1&gt;&lt;p&gt;CP: Christmas Program&lt;/p&gt;" style="text;html=1;strokeColor=none;fillColor=none;spacing=5;spacingTop=-20;whiteSpace=wrap;overflow=hidden;rounded=0;" vertex="1" parent="1">
          <mxGeometry x="590" y="40" width="190" height="120" as="geometry" />
        </mxCell>
        <mxCell id="Dj5Adu8nx1-zXwzrSsqa-19" value="Storefront" style="swimlane;fontStyle=0;childLayout=stackLayout;horizontal=1;startSize=26;horizontalStack=0;resizeParent=1;resizeParentMax=0;resizeLast=0;collapsible=1;marginBottom=0;align=center;fontSize=14;fillColor=#ffe6cc;strokeColor=#d79b00;arcSize=10;rounded=1;fontColor=#000000;" vertex="1" parent="1">
          <mxGeometry x="320" y="1610" width="160" height="151" as="geometry" />
        </mxCell>
        <mxCell id="Dj5Adu8nx1-zXwzrSsqa-20" value="CP" style="text;strokeColor=#666666;fillColor=#f5f5f5;spacingLeft=4;spacingRight=4;overflow=hidden;rotatable=0;points=[[0,0.5],[1,0.5]];portConstraint=eastwest;fontSize=11;whiteSpace=wrap;html=1;align=center;fontFamily=Verdana;fontColor=#333333;" vertex="1" parent="Dj5Adu8nx1-zXwzrSsqa-19">
          <mxGeometry y="26" width="160" height="25" as="geometry" />
        </mxCell>
        <mxCell id="Dj5Adu8nx1-zXwzrSsqa-21" value="Owner" style="text;spacingLeft=4;spacingRight=4;overflow=hidden;rotatable=0;points=[[0,0.5],[1,0.5]];portConstraint=eastwest;fontSize=11;whiteSpace=wrap;html=1;align=left;fontFamily=Verdana;" vertex="1" parent="Dj5Adu8nx1-zXwzrSsqa-19">
          <mxGeometry y="51" width="160" height="25" as="geometry" />
        </mxCell>
        <mxCell id="Dj5Adu8nx1-zXwzrSsqa-38" value="URI" style="text;spacingLeft=4;spacingRight=4;overflow=hidden;rotatable=0;points=[[0,0.5],[1,0.5]];portConstraint=eastwest;fontSize=11;whiteSpace=wrap;html=1;align=left;fontFamily=Verdana;" vertex="1" parent="Dj5Adu8nx1-zXwzrSsqa-19">
          <mxGeometry y="76" width="160" height="25" as="geometry" />
        </mxCell>
        <mxCell id="Dj5Adu8nx1-zXwzrSsqa-43" value="Region = SGP" style="text;spacingLeft=4;spacingRight=4;overflow=hidden;rotatable=0;points=[[0,0.5],[1,0.5]];portConstraint=eastwest;fontSize=11;whiteSpace=wrap;html=1;align=left;fontFamily=Verdana;fontStyle=1" vertex="1" parent="Dj5Adu8nx1-zXwzrSsqa-19">
          <mxGeometry y="101" width="160" height="25" as="geometry" />
        </mxCell>
        <mxCell id="Dj5Adu8nx1-zXwzrSsqa-47" value="Geohash = gbsuv" style="text;spacingLeft=4;spacingRight=4;overflow=hidden;rotatable=0;points=[[0,0.5],[1,0.5]];portConstraint=eastwest;fontSize=11;whiteSpace=wrap;html=1;align=left;fontFamily=Verdana;fontStyle=1" vertex="1" parent="Dj5Adu8nx1-zXwzrSsqa-19">
          <mxGeometry y="126" width="160" height="25" as="geometry" />
        </mxCell>
        <mxCell id="Dj5Adu8nx1-zXwzrSsqa-25" value="JSON Metadata" style="swimlane;fontStyle=0;childLayout=stackLayout;horizontal=1;startSize=26;horizontalStack=0;resizeParent=1;resizeParentMax=0;resizeLast=0;collapsible=1;marginBottom=0;align=center;fontSize=14;arcSize=10;rounded=1;" vertex="1" parent="1">
          <mxGeometry x="540" y="1819" width="160" height="201" as="geometry" />
        </mxCell>
        <mxCell id="Dj5Adu8nx1-zXwzrSsqa-26" value="S3" style="text;strokeColor=#666666;fillColor=#f5f5f5;spacingLeft=4;spacingRight=4;overflow=hidden;rotatable=0;points=[[0,0.5],[1,0.5]];portConstraint=eastwest;fontSize=11;whiteSpace=wrap;html=1;align=center;fontFamily=Verdana;fontColor=#333333;" vertex="1" parent="Dj5Adu8nx1-zXwzrSsqa-25">
          <mxGeometry y="26" width="160" height="25" as="geometry" />
        </mxCell>
        <mxCell id="Dj5Adu8nx1-zXwzrSsqa-27" value="&lt;span style=&quot;font-style: normal;&quot;&gt;Name&lt;/span&gt;" style="text;spacingLeft=4;spacingRight=4;overflow=hidden;rotatable=0;points=[[0,0.5],[1,0.5]];portConstraint=eastwest;fontSize=11;whiteSpace=wrap;html=1;align=left;fontFamily=Verdana;fontStyle=2" vertex="1" parent="Dj5Adu8nx1-zXwzrSsqa-25">
          <mxGeometry y="51" width="160" height="25" as="geometry" />
        </mxCell>
        <mxCell id="Dj5Adu8nx1-zXwzrSsqa-28" value="&lt;span style=&quot;font-size: 11px;&quot;&gt;Description&lt;/span&gt;" style="text;spacingLeft=4;spacingRight=4;overflow=hidden;rotatable=0;points=[[0,0.5],[1,0.5]];portConstraint=eastwest;fontSize=11;whiteSpace=wrap;html=1;align=left;fontFamily=Verdana;" vertex="1" parent="Dj5Adu8nx1-zXwzrSsqa-25">
          <mxGeometry y="76" width="160" height="25" as="geometry" />
        </mxCell>
        <mxCell id="Dj5Adu8nx1-zXwzrSsqa-29" value="&lt;span style=&quot;font-size: 11px;&quot;&gt;Image&lt;/span&gt;" style="text;spacingLeft=4;spacingRight=4;overflow=hidden;rotatable=0;points=[[0,0.5],[1,0.5]];portConstraint=eastwest;fontSize=11;whiteSpace=wrap;html=1;align=left;fontFamily=Verdana;" vertex="1" parent="Dj5Adu8nx1-zXwzrSsqa-25">
          <mxGeometry y="101" width="160" height="25" as="geometry" />
        </mxCell>
        <mxCell id="Dj5Adu8nx1-zXwzrSsqa-62" value="Longitude" style="text;spacingLeft=4;spacingRight=4;overflow=hidden;rotatable=0;points=[[0,0.5],[1,0.5]];portConstraint=eastwest;fontSize=11;whiteSpace=wrap;html=1;align=left;fontFamily=Verdana;" vertex="1" parent="Dj5Adu8nx1-zXwzrSsqa-25">
          <mxGeometry y="126" width="160" height="25" as="geometry" />
        </mxCell>
        <mxCell id="Dj5Adu8nx1-zXwzrSsqa-61" value="Latitude" style="text;spacingLeft=4;spacingRight=4;overflow=hidden;rotatable=0;points=[[0,0.5],[1,0.5]];portConstraint=eastwest;fontSize=11;whiteSpace=wrap;html=1;align=left;fontFamily=Verdana;" vertex="1" parent="Dj5Adu8nx1-zXwzrSsqa-25">
          <mxGeometry y="151" width="160" height="25" as="geometry" />
        </mxCell>
        <mxCell id="Dj5Adu8nx1-zXwzrSsqa-40" value="..." style="text;spacingLeft=4;spacingRight=4;overflow=hidden;rotatable=0;points=[[0,0.5],[1,0.5]];portConstraint=eastwest;fontSize=11;whiteSpace=wrap;html=1;align=left;fontFamily=Verdana;" vertex="1" parent="Dj5Adu8nx1-zXwzrSsqa-25">
          <mxGeometry y="176" width="160" height="25" as="geometry" />
        </mxCell>
        <mxCell id="Dj5Adu8nx1-zXwzrSsqa-39" style="edgeStyle=orthogonalEdgeStyle;orthogonalLoop=1;jettySize=auto;html=1;entryX=1;entryY=0.5;entryDx=0;entryDy=0;endArrow=none;strokeColor=#B3B3B3;dashed=1;strokeWidth=2;endFill=0;curved=1;exitX=0.5;exitY=0;exitDx=0;exitDy=0;" edge="1" parent="1" source="Dj5Adu8nx1-zXwzrSsqa-25" target="Dj5Adu8nx1-zXwzrSsqa-38">
          <mxGeometry relative="1" as="geometry">
            <mxPoint x="710" y="1736" as="sourcePoint" />
            <mxPoint x="530" y="1817" as="targetPoint" />
          </mxGeometry>
        </mxCell>
        <mxCell id="Dj5Adu8nx1-zXwzrSsqa-52" value="Wallet (Seller)" style="swimlane;fontStyle=0;childLayout=stackLayout;horizontal=1;startSize=26;horizontalStack=0;resizeParent=1;resizeParentMax=0;resizeLast=0;collapsible=1;marginBottom=0;align=center;fontSize=14;fillColor=#e1d5e7;strokeColor=#9673a6;arcSize=10;rounded=1;fontColor=#000000;" vertex="1" parent="1">
          <mxGeometry x="40" y="1490" width="160" height="51" as="geometry" />
        </mxCell>
        <mxCell id="Dj5Adu8nx1-zXwzrSsqa-53" value="System Program" style="text;strokeColor=#666666;fillColor=#f5f5f5;spacingLeft=4;spacingRight=4;overflow=hidden;rotatable=0;points=[[0,0.5],[1,0.5]];portConstraint=eastwest;fontSize=11;whiteSpace=wrap;html=1;align=center;fontFamily=Verdana;fontColor=#333333;" vertex="1" parent="Dj5Adu8nx1-zXwzrSsqa-52">
          <mxGeometry y="26" width="160" height="25" as="geometry" />
        </mxCell>
        <mxCell id="Dj5Adu8nx1-zXwzrSsqa-54" style="edgeStyle=orthogonalEdgeStyle;orthogonalLoop=1;jettySize=auto;html=1;entryX=0;entryY=0.5;entryDx=0;entryDy=0;curved=1;arcSize=20;endArrow=none;endFill=0;dashed=1;strokeWidth=2;strokeColor=#B3B3B3;exitX=1;exitY=0.5;exitDx=0;exitDy=0;" edge="1" parent="1" source="Dj5Adu8nx1-zXwzrSsqa-53" target="Dj5Adu8nx1-zXwzrSsqa-21">
          <mxGeometry relative="1" as="geometry">
            <mxPoint x="210" y="1530" as="sourcePoint" />
            <mxPoint x="320" y="1726" as="targetPoint" />
          </mxGeometry>
        </mxCell>
        <mxCell id="Dj5Adu8nx1-zXwzrSsqa-60" style="edgeStyle=orthogonalEdgeStyle;rounded=0;orthogonalLoop=1;jettySize=auto;html=1;entryX=0.5;entryY=0;entryDx=0;entryDy=0;" edge="1" parent="1" source="Dj5Adu8nx1-zXwzrSsqa-57" target="Dj5Adu8nx1-zXwzrSsqa-19">
          <mxGeometry relative="1" as="geometry" />
        </mxCell>
        <mxCell id="Dj5Adu8nx1-zXwzrSsqa-57" value="&lt;font color=&quot;#000000&quot;&gt;PDA&lt;/font&gt;" style="rounded=1;whiteSpace=wrap;html=1;arcSize=50;absoluteArcSize=0;fillColor=#ffe6cc;strokeColor=#d79b00;" vertex="1" parent="1">
          <mxGeometry x="340" y="1470" width="120" height="30" as="geometry" />
        </mxCell>
        <mxCell id="Dj5Adu8nx1-zXwzrSsqa-58" value="&quot;store&quot; + Owner" style="text;html=1;strokeColor=none;fillColor=none;align=center;verticalAlign=middle;whiteSpace=wrap;rounded=0;fontFamily=Verdana;fontColor=#B3B3B3;fontStyle=0;fontSize=11;" vertex="1" parent="1">
          <mxGeometry x="350" y="1440" width="96" height="30" as="geometry" />
        </mxCell>
        <mxCell id="Dj5Adu8nx1-zXwzrSsqa-59" style="edgeStyle=orthogonalEdgeStyle;orthogonalLoop=1;jettySize=auto;html=1;entryX=0;entryY=0.5;entryDx=0;entryDy=0;endArrow=block;endFill=1;strokeWidth=2;strokeColor=#B3B3B3;curved=1;exitX=1;exitY=0.75;exitDx=0;exitDy=0;movable=1;resizable=1;rotatable=1;deletable=1;editable=1;locked=0;connectable=1;" edge="1" parent="1" source="Dj5Adu8nx1-zXwzrSsqa-52" target="Dj5Adu8nx1-zXwzrSsqa-57">
          <mxGeometry relative="1" as="geometry">
            <mxPoint x="250" y="1470" as="sourcePoint" />
            <mxPoint x="380" y="1469" as="targetPoint" />
          </mxGeometry>
        </mxCell>
        <mxCell id="Dj5Adu8nx1-zXwzrSsqa-63" value="&lt;font style=&quot;font-size: 14px;&quot;&gt;The seller creates a coupon under a Storefront which contains default information which may be used when filling in the create coupon form such as longitude, latitude, geohash, stall image etc..&lt;/font&gt;" style="text;html=1;strokeColor=none;fillColor=none;align=left;verticalAlign=middle;whiteSpace=wrap;rounded=0;fontSize=11;fontFamily=Helvetica;fontColor=default;" vertex="1" parent="1">
          <mxGeometry x="20" y="1710" width="250" height="130" as="geometry" />
        </mxCell>
      </root>
    </mxGraphModel>
  </diagram>
</mxfile>
